<svg width="1284" height="1230" viewBox="0 0 1284 1230" fill="none" xmlns="http://www.w3.org/2000/svg">
<path d="M451.093 37.5955C507.053 15.2622 566.866 2.92886 627.026 0.248863C661.373 -0.817803 695.826 1.55552 729.733 7.15552C788.893 17.0489 845.906 38.4222 897.88 68.2222C976.64 113.089 1042.91 180.182 1085.15 260.516C1104.65 297.796 1119.6 337.662 1127.8 378.996C1136.32 419.676 1138.08 461.609 1134.6 502.969C1133.05 523.262 1129.13 543.289 1125.2 563.236C1124.6 554.182 1126.41 545.249 1126.65 536.236C1128.05 499.609 1125.89 462.809 1119.48 426.689C1105.09 349.209 1071.21 275.289 1021.08 214.409C990.933 177.476 955.013 145.262 915.12 119.182C866.586 87.1289 812.573 63.0755 755.84 49.9955C694.853 35.8222 631.146 33.3955 569.32 43.3422C511.466 52.3689 455 71.0489 403.693 99.3422C317.48 145.329 245.613 218.156 201.986 305.702C170.12 369.102 152.826 439.902 152.733 510.902C152.893 524.342 152.306 537.849 154 551.209C154.36 555.062 154.333 558.929 154.133 562.796C147.213 529.089 142.746 494.702 143.533 460.236C144.413 344.516 194.906 231.022 277.28 150.236C326.506 101.036 386.626 63.4089 451.093 37.5955Z" fill="black"/>
<path d="M608.907 149.712C619.841 148.312 630.907 148.858 641.881 147.898C658.307 148.698 674.841 148.458 691.134 150.965C747.334 157.378 801.841 177.165 849.494 207.578C893.867 236.245 932.294 274.605 959.174 320.218C980.507 355.245 994.387 394.552 1001.95 434.778C1008.03 471.752 1009.09 510.032 1000.93 546.792C999.107 555.112 996.934 563.365 994.614 571.565C993.494 565.538 995.427 559.592 995.574 553.578C997.454 510.205 993.254 466.312 980.641 424.672C969.721 388.072 952.841 353.192 930.281 322.338C902.374 284.472 866.227 252.925 825.601 229.325C779.774 202.818 727.841 187.165 675.107 183.085C670.707 182.205 666.201 182.365 661.747 182.178C641.827 181.685 621.827 181.712 602.067 184.378C598.494 184.778 594.907 184.992 591.401 185.672C583.694 186.645 576.054 188.032 568.414 189.352C542.987 194.752 517.987 202.272 494.107 212.578C443.507 234.258 398.107 268.045 362.974 310.432C328.494 352.405 304.387 402.845 293.254 456.005C284.881 493.832 284.534 533.098 289.241 571.445C281.107 551.805 277.334 530.685 275.081 509.645C273.107 480.672 274.987 451.458 281.054 423.058C292.814 369.858 317.841 319.672 353.321 278.325C386.334 240.218 427.201 208.872 472.774 187.258C499.921 174.138 528.614 164.192 558.041 157.658C560.201 157.138 562.387 156.725 564.587 156.272C579.214 153.205 594.014 150.978 608.907 149.712Z" fill="black"/>
<path d="M588.68 289.035C644.947 277.395 705.307 283.635 756.92 309.368C801.08 330.955 838.24 366.662 861.64 409.875C883.947 450.502 895.547 497.742 890.64 544.075C889.387 553.288 888.414 562.635 885.614 571.528C884.987 566.462 885.534 561.355 885.294 556.275C883.44 531.182 880.214 505.982 872.214 482.022C858.147 437.408 831.627 396.488 795.334 366.782C776.187 350.368 753.747 338.168 730.32 329.035C672.387 307.315 606.387 308.488 549.107 331.742C502.254 350.182 461.294 383.542 434.2 426.022C409.587 463.888 396.387 508.648 394.387 553.635C394 559.662 394.56 565.715 393.947 571.742C385.8 547.008 385.054 520.315 388.334 494.648C396.534 440.048 424.534 388.835 465.48 351.888C499.867 320.288 543.107 298.795 588.68 289.035Z" fill="black"/>
<path d="M533.174 591.925C569.4 555.472 605.454 518.832 641.974 482.672C662.321 502.379 682.027 522.739 701.974 542.845C717.694 558.765 733.561 574.539 749.147 590.579C750.841 591.765 748.614 593.259 747.854 594.192C713.827 627.232 680.707 661.179 647.041 694.579C645.374 696.192 643.761 697.859 641.961 699.299C605.121 664.112 570.12 627.005 533.174 591.925Z" fill="black"/>
<path d="M740.84 635.821C773.96 635.088 807.293 636.474 840.493 636.688C892.947 637.248 945.373 638.861 997.827 639.501C1067.17 641.248 1136.53 642.421 1205.85 644.968C1231.77 646.008 1257.69 647.394 1283.63 648.328C1266.68 650.234 1249.61 650.714 1232.61 651.994C1158.45 657.488 1084.24 661.754 1010.08 666.954C946.453 670.981 882.88 675.794 819.253 680.008C834.72 693.954 851 706.968 866.707 720.648C869.867 723.514 871.253 727.701 873.493 731.248C888.533 757.021 903.24 782.994 918.493 808.648C931.653 808.781 944.8 809.234 957.96 809.421C974.8 810.861 991.773 809.901 1008.63 811.248C1019.23 811.688 1029.84 811.674 1040.45 811.888C1060.69 843.354 1080.63 875.034 1101.12 906.328C1141.19 919.741 1180.87 934.461 1221.03 947.688C1209.2 946.888 1197.72 943.688 1186.04 941.914C1153.76 936.088 1121.53 929.848 1089.39 923.501C1068.41 896.128 1047.29 868.834 1026.84 841.074C985.187 840.554 943.547 839.594 901.893 839.274C880.92 808.461 861.2 776.728 840.24 745.968C810.267 726.394 779.84 707.448 750.187 687.354C737.16 699.581 724.387 712.074 711.387 724.328C700.76 734.594 690.387 745.141 679.32 754.928C680.76 778.941 682.987 802.914 684.107 826.954C723.72 858.461 761.96 891.701 801.947 922.768C804.147 924.648 807.28 926.194 807.707 929.408C810.32 941.568 813.84 953.514 816.413 965.701C817.413 969.248 818.28 972.848 819.053 976.461C821.28 985.928 824.067 995.274 825.64 1004.87C852.56 1018.3 879.347 1032.03 906.427 1045.17C912.413 1048.58 919.173 1050.78 924.787 1054.74C939.187 1079.91 953.187 1105.33 967.707 1130.45C972.973 1139.95 978.8 1149.19 983.333 1159.1C959.173 1130.35 934.533 1102.01 910.72 1072.97C909.227 1071.29 908.187 1069.06 906.213 1067.94C870.773 1054.59 835.693 1040.29 800.213 1027.03C794.107 1008.54 788.693 989.834 782.933 971.234C779.827 960.968 776.893 950.621 773.453 940.488C734.893 914.421 696.6 887.781 657.88 861.888C634.693 893.474 612.787 925.954 590.2 957.981C581.88 970.274 573.253 982.368 565.093 994.781C594.933 1038.05 624.28 1081.66 653.293 1125.5C644.133 1160.22 635.547 1195.1 625.733 1229.63C625.2 1194.62 624.787 1159.59 624.293 1124.57C588.947 1081.37 553.987 1037.85 518.373 994.848C540.24 958.794 562.573 923.021 584.68 887.101C595.24 870.768 604.893 853.848 615.827 837.754C612.533 810.488 607.787 783.421 604.267 756.181C578.44 733.568 553.053 710.408 527.04 688.034C497.587 709.541 469.08 732.368 440.08 754.501C436.333 757.928 431.467 760.301 428.44 764.394C425.28 804.741 420.48 844.954 417 885.288C384.533 908.008 352.907 931.901 321.107 955.541C318.28 958.048 313.6 959.341 312.947 963.541C302.68 1003.55 292.933 1043.7 281.827 1083.49C279.493 1090.69 278.213 1098.13 275.947 1105.37C276.987 1082.29 279.387 1059.25 280.427 1036.14C281.307 1030.38 281.267 1024.54 281.747 1018.77C282.693 1013.05 282.747 1007.23 283.08 1001.47C284.627 984.608 285.88 967.701 286.893 950.808C318.6 922.968 350.32 895.074 382.813 868.181C383.08 839.994 382.76 811.794 382.987 783.608C367.067 783.834 351.107 783.421 335.227 784.608C316.96 784.821 298.707 785.154 280.453 785.314C272.387 786.048 264.293 785.981 256.2 786.008C239.227 804.288 221.853 822.221 204.64 840.288C198.453 847.314 192.08 854.274 185.373 860.808C151.48 870.914 117.133 879.394 83.08 888.941C78.4667 890.194 73.8533 891.528 69.0933 892.128C102.813 876.234 136.6 860.448 170.48 844.888C174.333 843.634 176.307 839.941 178.787 837.074C200.213 812.114 221.52 787.074 243.12 762.274C243.84 762.114 245.267 761.808 245.987 761.648C250.853 760.954 255.787 760.914 260.68 760.488C269.987 759.381 279.333 758.434 288.707 757.821C298.013 756.741 307.373 755.874 316.72 755.168C330.893 753.688 345.093 752.194 359.32 751.141C364.08 750.101 369 750.354 373.773 749.368C378.453 748.968 383.147 748.741 387.853 748.648C405.333 731.541 423.707 715.394 441.24 698.354C446.867 693.168 452.773 688.261 458 682.661C413.88 680.128 369.827 676.714 325.72 673.794C217.107 665.928 108.347 659.714 0 648.621C57.0133 645.314 114.12 643.688 171.2 641.928C233.853 640.448 296.493 638.608 359.16 637.874C419.173 636.354 479.227 635.968 539.28 635.461C552.88 648.794 567.373 661.181 580.92 674.581C601.187 693.381 621.293 712.368 641.787 730.914C658.307 714.501 675.427 698.701 691.973 682.301C708.507 667.074 724.187 650.928 740.84 635.821Z" fill="black"/>
</svg>
