<svg width="894" height="975" viewBox="0 0 894 975" fill="none" xmlns="http://www.w3.org/2000/svg">
<path d="M447.484 803C449.11 806.829 449.394 811.075 450.531 815.063C453.436 825.839 456.546 836.853 463.004 846.118C467.623 853.038 474.436 858.448 482.2 861.441C491.82 865.696 502.586 865.137 512.819 866.47C545.082 869.046 577.204 873.869 608.623 881.722C615.001 883.125 621.282 884.973 627.678 886.367C631.213 887.246 634.446 885.213 637.769 884.369C638.906 884.405 639.518 885.595 640.371 886.234C650.045 895.57 659.941 904.711 669.108 914.554C667.776 915.104 666.531 914.065 665.306 913.736C645.044 905.635 623.769 900.154 602.21 896.858C584.337 893.572 566.26 891.546 548.156 890.107C534.912 889.583 521.534 887.993 508.396 890.613C491.145 893.118 473.717 901.513 464.479 916.863C455.418 932.346 452.309 950.326 449.066 967.719C448.454 969.833 449.092 972.613 447.289 974.212C444.891 957.84 442.173 941.22 435.431 925.985C431.282 916.143 424.256 907.553 415.488 901.478C399.774 890.791 380.169 888.366 361.604 889.201C336.207 889.983 310.952 893.279 286 897.942C266.644 901.398 247.9 907.447 229.379 913.94C227.94 914.296 226.528 915.326 225 914.784C235.544 904.178 246.266 893.696 257.592 883.934C261.038 885.675 264.912 887.451 268.847 886.323C286.364 881.766 303.926 877.297 321.754 874.108C345.525 869.711 369.625 867.474 393.681 865.351C400.103 864.818 406.641 864.116 412.628 861.566C421.262 858.253 428.52 851.883 433.396 844.093C440.876 831.523 444.251 817.106 447.484 803ZM447.387 856.147C445.53 860.846 442.883 865.191 439.987 869.321C435.59 875.237 428.981 878.87 422.612 882.29C426.592 884.218 430.35 886.634 433.681 889.557C440.085 894.798 444.029 902.321 447.458 909.703C449.199 905.688 451.242 901.797 453.712 898.19C458.331 891.226 465.1 885.835 472.544 882.157C467.889 880.167 463.519 877.511 459.628 874.269C453.827 869.569 450.62 862.676 447.387 856.147ZM446.705 873.204C448.81 876.446 451.076 879.831 454.629 881.661C451.209 884.308 448.561 887.835 446.723 891.743C444.333 888.146 441.979 884.459 438.612 881.705C441.81 879.378 444.271 876.269 446.705 873.204ZM739.15 191.572C748.558 202.454 757.37 213.833 765.871 225.435C772.329 234.016 778.317 242.978 785.503 250.981C795.008 262.165 806.973 271.129 820.022 277.773C824.411 280.047 829.146 281.593 833.48 283.956C828.55 285.599 823.46 286.878 818.264 287.242C813.236 287.677 808.163 287.011 803.188 287.988C821.106 326.025 835.443 365.955 843.242 407.35C851.441 448.94 851.353 491.792 846.325 533.765C845.25 544.513 842.976 555.084 841.501 565.771C847.373 560.974 852.854 555.625 859.445 551.797C866.258 547.133 874.075 544.149 882.114 542.408C885.969 541.262 889.985 540.906 894 540.986C892.055 543.26 889.319 544.629 887.036 546.521C865.788 562.617 850.047 584.744 837.619 608.071C827.306 627.703 818.779 648.223 808.386 667.818C799.458 684.616 789.776 701.041 778.947 716.693C774.461 723.062 769.709 729.245 765.107 735.534C757.006 746.567 753.47 761.038 756.872 774.442C757.689 777.249 758.259 780.127 759.209 782.916C756.891 783.058 754.776 781.966 752.636 781.291C745.467 778.706 737.818 777.639 730.232 778.679C726.022 779.913 721.855 781.335 718.009 783.467C714.145 785.323 711.48 788.797 708.22 791.462C694.869 803.934 680.932 815.828 665.964 826.328C652.888 835.38 639.314 844.023 624.391 849.726C616.36 853.448 607.424 854.203 598.745 855.171C595.201 855.642 591.577 855.704 588.077 854.904C595.468 850.783 603.214 847.309 610.436 842.886C620.038 837.298 629.17 830.938 637.866 824.045C642.077 820.27 646.448 816.574 649.654 811.866C655.277 804.067 657.134 793.789 654.931 784.462C660.714 786.096 666.443 788.495 672.572 788.353C683.401 788.93 694.016 784.276 701.904 777.036C707.048 772.293 711.64 766.722 714.172 760.122C716.037 755.61 716.197 750.626 715.469 745.856C714.927 745.004 714.394 744.169 713.879 743.334L714.083 743.174C714.589 742.756 715.602 741.921 716.108 741.504C713.63 736.663 707.439 736.689 704.268 732.683C706.151 732.194 708.051 731.794 709.961 731.421C710.547 730.568 711.125 729.716 711.72 728.881C719.457 730.853 726.306 735.214 732.187 740.526C733.981 742.312 736.548 741.104 737.765 739.283C760.976 711.95 781.052 681.8 796.188 649.253C803.606 632.873 810.135 616.004 814.274 598.486C810.624 591.904 805.329 586.521 800.115 581.183C801.732 581.067 803.366 580.978 805.01 580.854C808.225 580.249 811.53 580.534 814.772 580.001C815.981 579.548 817.242 579.317 818.539 579.131C820.938 571.243 822.047 563.008 823.504 554.906C827.563 531.491 829.411 507.719 829.394 483.957C829.847 441.159 822.678 398.405 809.291 357.792C803.251 339.457 795.94 321.522 787.19 304.307C785.281 300.7 783.735 296.872 781.186 293.656C775.11 300.212 767.381 305.124 759.058 308.286C760.088 303.729 761.865 299.359 762.38 294.678C763.659 283.787 763.322 272.443 759.369 262.095C753.489 246.079 744.187 231.616 734.256 217.856C730.729 212.802 726.297 208.423 722.992 203.235C729.246 200.677 734.673 196.618 739.15 191.572ZM153.579 191.837C157.328 196.882 162.435 201.085 168.396 203.208C168.484 203.572 168.671 204.291 168.76 204.646C155.542 220.325 143.586 237.372 135.653 256.364C133.832 260.699 132.632 265.265 131.566 269.84C129.541 279.442 129.213 289.56 131.594 299.127C132.18 302.138 133.219 305.061 133.663 308.107C125.651 305.016 118.633 299.775 112.566 293.788C93.2635 329.027 79.7695 367.349 71.7393 406.674C68.1505 422.725 66.2676 439.097 64.7842 455.46C62.9543 478.955 63.8155 502.575 65.752 526.044C67.5463 543.881 70.0959 561.692 74.5107 579.085C78.6235 580.186 82.8698 580.266 87.0625 580.861C88.9722 580.995 90.8911 581.057 92.8008 581.154C87.9774 586.751 82.6216 591.974 78.9707 598.485C88.822 636.3 106.765 671.629 128.511 703.945C127.871 704.665 127.232 705.402 126.602 706.148C127.694 708.982 130.439 710.687 131.522 713.512C132.81 716.39 135.955 717.962 136.941 721.071C138.141 724.704 142.44 726.029 143.577 729.68C144.99 734.032 149.538 736.013 151.989 739.655C153.014 740.923 154.282 742.376 155.728 743.384C154.284 742.376 153.017 740.924 151.992 739.656C149.541 736.014 144.993 734.033 143.58 729.681C142.443 726.03 138.144 724.706 136.944 721.073C135.958 717.964 132.813 716.392 131.525 713.514C130.442 710.689 127.697 708.983 126.604 706.149C127.235 705.403 127.874 704.666 128.514 703.946C136.446 716.107 145.223 727.717 154.452 738.919C155.705 740.527 157.979 742.348 159.934 740.651C165.361 735.792 171.588 731.706 178.614 729.609C183.784 727.815 189.337 728.339 194.711 728.428C191.318 723.302 187.054 718.71 183.998 713.327C181.848 709.907 180.302 706.158 178.419 702.596C175.648 696.307 173.48 689.778 171.419 683.231C168.861 674.723 167.679 665.885 165.441 657.305C165.44 657.303 165.438 657.301 165.437 657.3C163.704 654.031 162.221 650.477 159.316 648.034C155.834 644.819 151.099 643.709 146.631 642.634C136.149 640.146 126.982 633.013 121.607 623.73C117.237 615.789 114.972 606.737 114.83 597.686C114.732 586.973 114.679 576.02 111.206 565.76C109.98 561.611 107.733 557.907 105.681 554.141C108.47 554.247 111.153 555.011 113.773 555.917C129.239 561.513 144.74 568.798 156.065 581.065C162.461 587.372 166.956 595.438 169.665 603.966C170.429 606.275 171.025 608.639 171.478 611.037C172.446 615.061 172.117 619.254 172.17 623.366C171.992 626.884 172.277 630.491 171.38 633.929C170.403 640.642 171.564 647.328 172.825 653.908C172.827 653.911 172.83 653.914 172.832 653.917C172.93 654.317 173.134 655.107 173.231 655.498C176.216 668.645 178.57 682.058 183.838 694.548C186.698 701.619 190.474 708.308 194.729 714.642C203.638 726.9 215.675 736.636 228.981 743.778C253.712 757.227 281.294 763.791 307.534 773.536C322.413 778.75 336.928 785.662 349.071 795.868C356.373 802.335 363.622 809.877 366.118 819.604C367.371 824.534 366.793 830.485 362.716 833.994C358.283 838.436 349.862 837.68 346.744 832.066C350.324 831.471 354.899 830.69 356.169 826.684C358.434 820.164 353.788 814.007 350.058 809.068C336.76 793.789 317.341 786.133 298.695 779.595C296.874 779.044 295.071 778.422 293.295 777.782C292.806 777.658 291.82 777.41 291.331 777.285C275.013 771.733 258.482 766.749 242.466 760.345C230.491 755.219 218.757 749.312 208.426 741.309C201.435 737.427 192.65 735.144 184.948 738.288C182.061 739.336 179.787 741.513 178.028 743.974C177.344 743.192 176.669 742.419 175.994 741.664C176.767 740.882 177.54 740.118 178.312 739.363C177.637 737.827 176.962 736.289 176.287 734.771H176.284C176.959 736.289 177.635 737.825 178.31 739.361C177.537 740.116 176.764 740.88 175.991 741.662C176.666 742.417 177.341 743.19 178.025 743.972L178.167 744.132C177.59 745.251 177.065 746.406 176.523 747.552C176.372 750.039 176.346 752.544 176.595 755.031C179.348 766.775 187.974 776.35 198.057 782.551C207.57 788.12 219.438 790.155 230.044 786.735C232.487 786.078 234.753 784.869 237.258 784.398C234.771 792.837 236.484 802.209 241.308 809.493C247.641 818.767 256.729 825.589 265.728 832.083C275.659 839.038 286.211 845.061 296.969 850.64C299.447 852.159 302.468 852.869 304.556 854.983C298.391 855.889 292.172 854.833 286.061 854.016C281.628 853.207 277.045 852.692 272.905 850.809C251.657 841.41 231.296 829.853 212.793 815.782C202.915 808.223 193.393 800.211 184.332 791.701C180.184 788.033 176.284 783.83 170.999 781.787C163.2 777.843 154.058 777.373 145.69 779.629C141.533 780.366 137.829 782.747 133.601 783.129C134.142 781.414 134.676 779.7 135.191 777.985C135.769 774.752 136.391 771.527 137.03 768.32C138.141 756.293 134.268 744.097 127.055 734.494C109.804 711.096 94.16 686.454 81.3418 660.338C73.8979 645.912 67.4574 630.988 60.3066 616.42C50.6508 596.895 38.703 578.427 24.1172 562.216C18.2367 556.149 11.9649 550.455 5.11621 545.489C3.37518 544.059 1.24356 543.002 0 541.057C13.0314 541.11 25.9203 545.694 36.5 553.209C42.105 556.798 46.7334 561.629 52.0098 565.645C44.6724 527.066 41.7412 487.545 44.4238 448.335C45.7652 429.548 48.2704 410.814 52.8096 392.506C56.7625 375.673 61.533 359.008 67.5557 342.787C74.0402 324.195 81.6886 306.012 90.4561 288.388C85.0019 286.789 79.299 287.916 73.7471 287.09C69.3144 286.477 64.7839 285.811 60.6533 284.043C70.5135 280.827 80.0452 276.333 88.333 270.044C98.051 262.689 105.743 253.104 113.205 243.563C126.485 226.188 139.002 208.173 153.579 191.837ZM785.492 553.742C784.879 556.576 783.165 558.975 782.152 561.657C778.413 571.1 777.809 581.396 778.04 591.442C778.298 603.008 776.734 615.258 770.027 625.003C765.728 632.118 758.736 637.226 751.266 640.602C745.359 643.355 738.137 642.973 733.029 647.414C726.687 652.664 724.901 661.157 723.471 668.85C721.277 680.086 718.283 691.244 713.575 701.708C709.382 711.248 703.528 719.891 697.079 728.037C701.974 727.842 706.895 727.895 711.719 728.881C711.124 729.716 710.546 730.568 709.96 731.421C708.05 731.794 706.149 732.194 704.266 732.683C707.437 736.689 713.629 736.663 716.107 741.504C715.601 741.921 714.588 742.756 714.082 743.174C709.481 737.729 701.654 735.641 694.823 737.213C691.315 737.915 687.619 738.474 684.555 740.438C671.763 750.022 657.407 757.502 642.351 762.841C623.892 769.672 604.811 774.664 586.396 781.566C571.651 787.633 556.86 794.961 545.881 806.829C543.1 809.823 540.818 813.243 539.05 816.93C538.846 817.383 538.437 818.279 538.232 818.732C537.637 821.113 536.679 823.618 537.807 826.025C538.89 830.192 543.652 831.107 547.196 832.19C544.105 837.174 536.696 838.426 532.219 834.598C527.467 830.849 527.201 824.072 528.657 818.662C530.771 811.12 535.799 804.911 541.084 799.323C550.669 789.756 562.422 782.606 574.822 777.312C576.546 776.574 578.269 775.846 579.992 775.108C603.381 765.541 628.307 760.149 651.332 749.658C666.255 743.085 680.478 734.166 691.19 721.712C703.458 707.668 710.662 689.901 714.757 671.887C716.569 663.812 718.195 655.693 719.731 647.565C720.566 642.209 720.345 636.728 719.616 631.381C718.195 619.602 719.474 607.316 724.706 596.559C731.813 580.445 746.647 569.279 762.299 562.155C769.814 558.815 777.489 555.732 785.492 553.742ZM156.22 743.705C156.604 743.938 156.998 744.138 157.404 744.29C156.999 744.137 156.604 743.938 156.22 743.705ZM685.676 633.44C696.548 641.355 704.028 653.605 706.497 666.796C706.835 672.534 707.244 678.424 705.547 684.003C704.996 686.073 704.348 688.133 703.335 690.025C703.175 686.765 703.318 683.496 702.927 680.254C701.523 676.665 700.11 672.828 697.09 670.278C697.596 672.099 697.961 673.965 698.369 675.821C698.6 683.247 703.308 690.665 700.279 698.002C697.037 695.257 693.768 692.406 691.503 688.781C685.969 679.587 684.716 668.581 685.267 658.046C685.808 649.847 685.614 641.639 685.676 633.44ZM205.602 633.406C205.664 638.967 205.512 644.546 206.143 650.089C207.022 655.028 206.818 660.082 206.854 665.092C206.729 677.484 201.426 690.302 191.077 697.586C190.749 696.511 190.367 695.472 189.923 694.46C189.319 689.903 191.37 685.621 192.17 681.215C192.978 676.489 194.382 671.852 195.226 667.171C193.067 668.912 192.41 671.825 191.042 674.144C188.51 678.692 187.879 683.942 187.959 689.067C186.289 686.731 185.739 683.818 184.771 681.171C183.536 675.672 183.073 669.996 183.811 664.399C186.307 651.634 194.507 640.086 205.602 633.406ZM169.825 650.148C169.763 652.565 169.683 654.99 169.567 657.415C168.6 657.735 167.632 658.072 166.664 658.418C166.665 658.419 166.666 658.42 166.667 658.421C167.635 658.075 168.603 657.737 169.571 657.417C169.687 654.992 169.766 652.568 169.828 650.152C169.827 650.151 169.826 650.15 169.825 650.148ZM755.956 592.544C745.092 602.404 735.099 614.139 731.013 628.512C730.124 632.136 728.863 635.698 728.747 639.464C733.917 634.623 738.928 629.391 742.445 623.182C748.246 613.606 752.207 603.053 755.956 592.544ZM136.132 593.182C138.122 597.126 139.187 601.434 140.857 605.521C145.592 618.125 152.228 630.624 162.977 639.125C161.502 622.86 152.085 608.611 140.875 597.259C139.321 595.873 138.21 593.848 136.132 593.182ZM172.778 142.251C178.961 138.804 186.849 138.387 193.209 141.629C198.254 144.276 202.563 148.664 204.375 154.153C206.596 159.696 206.054 165.986 203.824 171.44C199.88 180.252 189.94 185.973 180.338 184.712C179.156 184.357 177.957 184.072 176.767 183.806C166.293 180.475 159.48 168.731 161.825 158C162.856 151.427 167.111 145.635 172.778 142.251ZM706.348 138.867C717.567 137.979 727.57 147.084 729.64 157.806C730.164 161.723 729.87 165.747 728.458 169.46C726.513 174.657 722.888 179.294 717.869 181.799C710.176 186.098 699.819 184.997 693.334 178.992C687.978 174.497 685.126 167.444 685.455 160.497C685.802 149.456 695.111 139.249 706.348 138.867ZM446.672 0C449.443 12.4007 451.744 24.9441 455.644 37.0605C458.566 45.9967 462.982 54.7104 469.999 61.1416C481.138 71.4903 495.671 76.8828 509.884 81.502C507.725 82.8877 505.113 83.1014 502.715 83.8564C493.619 86.5036 484.434 89.5323 476.75 95.2529C469.066 100.689 462.964 108.338 459.304 116.999C453.246 130.226 449.914 144.456 446.698 158.571C444.797 155.16 444.878 151.021 443.776 147.316C439.912 131.3 435.399 114.44 423.798 102.128C413.334 90.8912 398.464 85.4462 383.878 81.9463C386.223 80.4362 389.137 80.3031 391.722 79.3438C405.57 75.2842 418.912 67.7777 427.484 55.9102C436.279 44.2911 439.521 29.7493 442.95 15.8828C444.407 10.6419 445.064 5.20542 446.672 0ZM356.223 82.3203C359.234 82.0894 362.29 81.7078 365.301 82.1963C357.244 87.2417 348.085 89.9861 339.442 93.7969C309.213 105.976 280.468 122.214 255.364 143.089C250.905 146.775 246.917 150.959 242.786 154.983C238.416 151.874 232.668 151.147 227.561 152.621C225.402 153.207 223.466 154.424 221.271 154.922C220.152 150.018 217.86 145.319 214.307 141.713C220.161 137.476 226.628 134.18 232.811 130.458C253.57 117.835 274.951 106.056 297.728 97.4482C316.586 90.2885 336.165 84.7898 356.223 82.3203ZM527.851 81.5205C530.942 80.2858 534.38 81.1117 537.613 81.165C572.293 84.9492 605.16 98.3006 635.505 115.027C649.771 122.88 663.566 131.577 677.086 140.655C674.75 144.999 671.819 149.112 670.673 153.997C666.96 152.709 663.237 150.96 659.204 151.173C655.731 151.2 652.631 152.94 649.682 154.574C644.547 149.156 639.493 143.595 633.479 139.136C605.88 116.528 573.537 100.61 540.616 87.3477C536.308 85.5266 532.07 83.5281 527.851 81.5205ZM446.361 58.3525C443.936 63.5312 441.609 68.8968 437.763 73.2139C434.689 76.4029 430.949 78.9882 426.854 80.6582C426.756 80.9247 426.569 81.4396 426.472 81.7061C436.598 84.9217 442.701 94.4445 446.379 103.852C448.067 99.3746 450.288 95.0927 453.104 91.2197C456.461 86.6895 461.383 83.6513 466.49 81.4395C462.671 79.5296 458.939 77.3269 455.812 74.3955C451.371 69.9362 448.502 64.2064 446.361 58.3525Z" fill="black"/>
<path d="M286.779 205.867C291.071 200.144 299.604 196.9 306.196 200.533C314.137 205.702 318.691 214.699 320.781 223.734C313.313 224.79 304.196 220.61 297.656 225.704C289.161 232.91 289.528 246.994 296.675 255.017C300.57 259.654 306.75 258.71 312.099 259.182C313.118 262.261 314.182 265.34 315.313 268.381C313.972 270.854 312.818 273.655 313.2 276.517C314.084 285.566 316.002 294.473 316.968 303.515C317.845 310.055 317.83 316.73 319.291 323.18C321.029 326.109 323.538 328.476 325.771 331.031C323.643 334.537 319.98 337.593 320.527 342.125C319.987 356.973 321.845 371.806 320.924 386.661C320.444 403.494 319.59 420.312 318.437 437.114C321.336 440.058 324.272 442.973 327.149 445.954C324.257 448.861 320.946 451.423 318.527 454.756C317.335 456.831 317.508 459.416 317.118 461.731C315.965 478.309 314.766 494.879 313.837 511.473C312.009 517.885 318.534 521.361 322.002 525.564C319.103 528.658 315.875 531.527 313.485 535.048C311.148 555.214 312.129 575.665 313.755 595.854C317.8 598.334 321.815 600.873 325.703 603.6C321.898 609.129 313.994 614.59 316.646 622.291C319.051 636.194 321.838 650.083 326.048 663.575C335.097 663.515 344.154 663.485 353.211 663.455C352.192 666.092 350.267 668.572 350.147 671.456C351.825 677.936 353.608 684.408 354.32 691.098C348.469 692.019 342.641 693.106 336.768 693.855C332.775 693.9 329.179 691.742 325.471 690.603C328.093 693.465 330.25 697.488 334.378 698.237C341.158 699.443 347.832 697.113 354.537 696.387C353.818 705.159 351.705 714.261 345.72 721.04C340.985 726.157 332.423 726.142 327.112 721.992C318.826 716.366 313.597 707.339 309.5 698.424C299.454 673.456 295.304 646.427 294.21 619.661C296.555 617.182 298.832 614.657 300.99 612.02C298.233 609.66 295.476 607.316 292.742 604.941C292.42 558.742 296.48 512.679 298.802 466.57C303.949 463.656 308.953 460.517 313.837 457.184C309.08 455.393 304.301 453.685 299.476 452.097C299.604 424.499 300.39 396.849 297.693 369.334C296.907 360.269 295.828 351.235 294.877 342.193C299.446 342.125 304.038 342.095 308.623 342.013C304.046 338.058 299.199 334.409 294.847 330.207C292.097 328.177 292.352 324.341 291.588 321.405C287.543 296.361 279.542 272.03 277.31 246.679C275.976 232.603 277.834 217.336 286.779 205.867Z" fill="#070606"/>
<path d="M314.43 200.379C340.2 202.731 365.82 206.537 391.612 208.724C429.967 211.998 468.427 214.665 506.947 214.035C535.976 214.65 564.967 212.792 593.883 210.447C597.427 209.601 601.232 210.357 603.48 213.384C613.937 225.205 614.911 242.495 611.488 257.26C602.326 254.93 593.172 252.57 583.868 250.9C588.542 254.219 593.352 257.372 598.356 260.182C596.003 272.385 592.842 284.438 591.374 296.806C591.374 301.616 588.774 305.646 585.501 308.912C586.849 311.759 588.722 314.531 588.212 317.887C587.441 328.217 585.643 338.443 584.737 348.766C579.313 353.096 573.852 357.388 568.63 361.958C573.545 362.16 578.489 362.31 583.426 362.43C580.04 408.276 579.201 454.34 582.369 500.224C583.306 515.671 585.448 531.013 586.445 546.46C582.287 549.928 578.197 553.479 574.106 557.015C578.871 558.483 583.703 559.742 588.535 561.008C591.681 587.385 597.914 613.244 604.97 638.812C598.7 641.089 592.37 643.217 585.95 645.037C585.328 642.468 584.632 639.921 583.943 637.374C580.189 635.815 576.429 634.332 572.616 632.961C575.702 631.044 578.878 629.261 581.987 627.373C581.238 622.998 580.384 618.66 579.425 614.331C576.504 612.885 573.462 611.694 570.765 609.866C571.672 605.521 577.2 603.243 576.309 598.337C575.725 591.677 574.159 585.122 573.417 578.477C574.294 570.619 565.162 568.544 560.607 564.289C563.536 560.206 567.761 556.97 569.979 552.423C569.762 540.122 567.851 527.889 567.342 515.588C566.196 502.314 566.45 488.972 565.259 475.705C561.843 473.031 558.42 470.356 555.169 467.495C558.442 462.483 565.754 459.097 565.237 452.257C565.432 425.334 566.106 398.418 566.877 371.509C563.544 369.082 560.27 366.595 556.929 364.19C560.51 358.414 567.769 354.362 567.896 346.885C568.698 336.877 569.717 326.839 569.672 316.8C567.125 313.295 563.649 310.658 560.57 307.669C564.166 304.53 568.51 302.02 571.514 298.29C573.088 288.693 573.687 278.962 575.208 269.351C562.937 266.302 550.509 263.935 538.089 261.605C537.729 257.432 537.534 253.26 536.927 249.117C532.59 252.301 528.395 255.657 524.17 258.975C494.714 253.911 464.981 249.274 435.024 249.162C426.611 248.75 418.378 250.623 410.213 252.331C410.333 248.817 410.572 245.311 410.902 241.813C398.796 248.518 384.585 246.076 371.453 248.6C356.845 250.825 342.769 255.35 328.775 259.957C328.73 245.356 329.36 230.284 324.063 216.388C322.041 210.417 318.355 205.233 314.43 200.379Z" fill="#070606"/>
<path d="M301.492 228.865C308.241 227.771 315.193 228.318 322.025 228.22C323.344 236.356 323.396 244.611 323.471 252.837C316.609 252.485 309.463 255.414 302.75 253.361C294.165 248.821 293.379 234.191 301.492 228.865Z" fill="#070606"/>
<path d="M385.723 269.586C392.173 269.893 398.51 271.197 404.96 271.579C404.129 273.339 403.252 275.077 402.361 276.807C403.335 278.643 404.316 280.471 405.267 282.321C398.915 283.347 392.705 280.261 386.442 281.752C388.457 288.779 391.319 295.596 394.772 302.038C398.181 300.817 401.552 299.461 404.975 298.255C404.788 309.245 400.72 319.807 402.001 330.894C400.63 334.7 404.406 336.153 406.766 337.884C409.358 337.247 411.71 335.928 414.205 335C413.231 329.156 411.905 323.313 411.995 317.365C413.208 317.373 414.422 317.388 415.65 317.41C415.995 318.706 416.34 320.01 416.684 321.321C418.467 319.702 420.198 317.994 422.355 316.878C423.104 318.279 423.801 319.732 424.685 321.066C426.835 319.785 428.678 318.032 430.985 316.983C431.517 322.984 430.146 328.767 428.827 334.558C428.513 341.322 428.76 348.124 429.15 354.889C429.299 357.428 431.09 359.376 432.288 361.481C419.051 361.661 405.814 361.616 392.577 361.586C391.813 355.346 393.536 347.27 387.671 342.888C384.719 342.408 381.88 344.461 381.123 347.323C379.984 351.967 380.456 356.844 380.179 361.593C366.747 361.608 353.323 361.608 339.906 361.593C343.54 355.908 342.858 348.798 343.337 342.363C343.892 334.205 341.39 326.347 340.423 318.339C342.011 318.047 343.599 317.74 345.188 317.425C345.517 318.646 345.832 319.867 346.139 321.096C348.371 319.8 350.641 318.616 353.076 317.71C353.256 318.923 353.45 320.144 353.645 321.365C355.758 319.635 357.93 317.882 360.597 317.103C360.994 323.029 360.253 328.902 358.597 334.588C360.912 335.442 363.167 336.603 365.227 337.996C366.553 336.812 367.946 335.704 369.399 334.677C369.729 327.748 370.838 320.751 370.126 313.829C368.081 308.75 367.571 303.252 367.294 297.828C370.987 298.547 374.186 300.495 377.565 302.031C379.992 296.936 382.771 291.992 384.824 286.733C385.91 281.1 385.498 275.287 385.723 269.586ZM384.532 316.991C383.58 320.796 383.393 324.722 383.018 328.617C384.412 328.624 387.199 328.639 388.592 328.647C388.599 325.351 388.599 322.04 388.622 318.759C387.266 318.144 385.895 317.56 384.532 316.991Z" fill="#070606"/>
<path d="M454.117 300.37C472.943 299.988 491.806 299.951 510.639 300.348C513.358 300.752 512.504 303.659 512.07 305.532C492.15 305.022 472.179 306.183 452.297 304.768C452.746 303.666 453.66 301.471 454.117 300.37Z" fill="#070606"/>
<path d="M452.296 318.841C471.728 317.455 491.228 318.414 510.69 318.159C522.339 318.369 534.055 317.522 545.667 318.459C547.899 319.343 546.775 321.762 546.528 323.508C516.331 323.163 486.134 323.628 455.944 323.343C453.494 323.635 452.228 321.193 452.296 318.841Z" fill="#070606"/>
<path d="M454.693 336.183C462.739 336.873 471.946 333.906 479.22 338.521C477.639 339.959 475.961 341.607 473.691 341.719C466.777 342.146 459.728 342.461 452.918 340.895C452.978 339.847 453.045 338.805 453.12 337.756C453.637 337.232 454.162 336.7 454.693 336.183Z" fill="#070606"/>
<path d="M481.328 337.579C486.662 336.261 492.303 335.542 497.771 336.313C499.037 337.542 499.292 339.385 499.832 340.988C494.603 341.138 489.276 342.501 484.115 341.018C482.961 340.074 482.19 338.763 481.328 337.579Z" fill="#070606"/>
<path d="M505.195 336.094C517.773 336.274 530.366 335.757 542.951 336.214C544.846 336.281 546.36 337.547 547.895 338.529C547.386 339.45 546.892 340.386 546.397 341.323C532.119 341.877 517.818 341.6 503.555 340.873C504.072 339.27 504.626 337.682 505.195 336.094Z" fill="#070606"/>
<path d="M454.11 355.049C474.089 354.764 494.128 354.412 514.1 355.304C513.56 356.922 513.014 358.54 512.444 360.15C492.398 359.723 472.299 360.899 452.297 359.476C452.746 358.367 453.66 356.158 454.11 355.049Z" fill="#070606"/>
<path d="M382.604 384.09C384.005 382.277 384.807 380.097 385.856 378.082C387.384 382.352 390.073 385.963 394.673 387.401C392.703 388.383 390.695 389.281 388.687 390.188C387.856 392.608 387.054 395.057 386.238 397.499C399.198 406.219 412.981 413.703 425.792 422.647C399.25 423.277 372.686 423.284 346.145 422.64C359.067 413.778 372.791 406.182 385.781 397.432C384.844 395.14 384.11 392.72 382.717 390.66C380.926 389.139 378.657 388.375 376.581 387.356C378.604 386.3 380.784 385.491 382.604 384.09Z" fill="#070606"/>
<path d="M197.33 392.946C198.821 388.031 200.057 383.027 202.012 378.285C203.698 383.139 205.256 388.046 206.709 392.983C210.875 394.376 215.197 395.32 219.235 397.088C219.28 397.875 218.943 398.399 218.216 398.661C214.575 400.377 210.575 401.119 206.747 402.287C204.956 406.954 205.121 412.775 201.653 416.663C199.862 412.078 198.919 407.224 197.795 402.459C193.098 400.946 188.333 399.635 183.719 397.875C188.011 395.612 192.738 394.429 197.33 392.946Z" fill="#070606"/>
<path d="M611.855 378.52C614.956 381.314 619.421 383.291 620.986 387.449C623.099 394.663 626.815 401.203 630.778 407.533C635.377 405.301 639.917 402.889 644.127 399.945C646.487 398.064 649.723 399.248 652.472 399.36C651.843 401.405 651.199 403.458 650.569 405.511C644.629 407.196 638.973 409.661 633.519 412.507C635.272 414.41 637.302 416.193 638.261 418.665C643.318 430.561 650.697 441.266 655.993 453.028C668.017 474.865 680.497 496.454 692.58 518.269C695.225 523.236 698.439 527.858 701.315 532.705C702.694 535.821 702.686 539.394 703.308 542.705C700.574 541.117 696.955 540.323 695.352 537.364C681.074 509.122 664.728 481.981 649.431 454.309C648.075 451.222 643.932 453.057 641.557 452.616C643.94 460.197 646.674 467.665 649.303 475.157C645.423 478.445 641.902 482.116 638.112 485.502C636.913 483.839 635.729 482.168 634.523 480.513C634.396 483.532 634.283 486.558 634.186 489.6C629.414 492.866 624.65 496.155 619.578 498.941C618.874 496.305 618.177 493.668 617.496 491.053C615.847 494.896 614.439 498.852 612.649 502.635C610.004 505.324 606.566 507.077 603.502 509.242C604.82 503.301 606.438 497.428 607.472 491.435C608.311 486.783 608.469 481.944 610.311 477.524C611.72 475.336 613.413 473.351 615.046 471.336C613.375 470.782 611.63 470.212 610.004 469.718C609.3 455.897 608.012 441.888 602.843 428.913C599.846 429.033 596.85 429.123 593.891 428.651C594.767 426.703 594.984 423.857 597.269 422.98C606.776 419.489 615.75 414.777 624.755 410.17C621.616 403.563 618.747 396.663 613.877 391.112C612.079 387.269 612.529 382.662 611.855 378.52ZM626.882 415.249C627.092 416.65 627.347 418.051 627.594 419.452C628.193 418.86 628.792 418.276 629.399 417.699C628.56 416.875 627.721 416.058 626.882 415.249ZM607.667 425.535C611.061 425.714 614.791 426.509 617.84 424.553C619.975 423.505 620.574 421.092 621.384 419.085C616.664 420.913 612.124 423.16 607.667 425.535ZM631.205 423.025C630.605 427.355 630.013 434.681 637.07 433.123C635.445 429.572 633.826 425.954 631.205 423.025ZM629.631 438.023C630.013 441.828 630.246 445.686 631.279 449.402C633.107 452.893 637.872 452.96 641.123 454.136C639.13 452.496 636.703 451.252 635.212 449.102C633.797 445.911 633.886 442.33 633.999 438.922C632.538 438.622 631.077 438.322 629.631 438.023ZM638.786 438.172C636.666 442.495 640.404 446.847 644.839 446.99C643.228 443.813 641.67 440.382 638.786 438.172Z" fill="#070606"/>
<path d="M727.145 385.992C729.34 382.951 732.703 380.928 735.632 378.613C735.19 383.198 735.789 388.644 732.651 392.457C728.478 397.888 725.369 403.994 722.695 410.264C732.643 414.616 741.977 420.467 752.6 423.179C752.967 425.014 753.297 426.857 753.604 428.715C751.049 428.902 748.48 428.955 745.925 428.932C743.91 444.574 742.869 460.433 745.109 476.112C743.97 476.427 742.846 476.749 741.723 477.063C743.461 479.423 745.723 481.551 746.36 484.562C749.041 492.675 750.622 501.088 752.72 509.373C749.326 507.036 745.663 504.991 742.891 501.942C741.168 498.96 740.127 495.627 738.734 492.503C737.999 494.788 737.325 497.11 736.651 499.417C731.16 496.391 725.759 493.207 720.515 489.776C722.38 481.483 721.399 473.026 722.14 464.65C717.249 469.879 713.061 475.692 708.476 481.184C705.48 479.004 702.573 476.719 699.584 474.546C702.236 467.767 704.941 461.002 707.24 454.095C708.724 453.721 710.222 453.346 711.743 452.971C708.064 452.897 704.409 452.702 700.828 451.855C693.449 464.238 687.231 477.281 679.785 489.604C678.564 486.892 676.219 483.805 677.755 480.757C682.324 470.666 688.729 461.511 693.224 451.391C695.584 444.229 700.378 438.289 703.63 431.554C707.473 425.231 709.57 417.98 713.975 411.994C709.233 409.882 704.484 407.754 699.487 406.331C696.251 405.657 696.236 401.679 695.299 399.162C697.547 398.975 699.749 398.765 702.019 398.622C705.907 403.057 711.728 404.773 716.829 407.372C720.837 400.555 725.234 393.768 727.145 385.992ZM719.309 415.942C719.144 416.781 718.979 417.628 718.837 418.482C719.429 418.497 720.62 418.534 721.212 418.549C721.182 417.5 721.159 416.459 721.144 415.425C720.687 415.553 719.766 415.815 719.309 415.942ZM726.478 418.684C727.557 420.647 728.868 422.475 730.358 424.145C731.1 423.344 731.857 422.542 732.621 421.755C730.591 420.692 728.523 419.673 726.478 418.684ZM734.171 422.13C734.149 423.433 734.134 424.752 734.119 426.063C736.059 425.666 738.202 425.366 740.187 424.962C738.202 423.965 736.187 423.036 734.171 422.13ZM711.181 433.269C713.031 432.535 715.563 432.356 716.537 430.325C717.668 427.891 716.724 425.126 716.657 422.557C714.409 425.891 712.724 429.561 711.181 433.269ZM713.286 443.143C716.312 442.221 718.335 439.794 718.62 436.626C715.586 437.547 713.563 439.967 713.286 443.143ZM703.6 447.181C706.281 446.012 710.012 445.046 710.634 441.697C710.447 440.057 709.48 438.648 708.761 437.21C706.836 440.416 705.098 443.75 703.6 447.181Z" fill="#070606"/>
<path d="M454.8 413.706C466.172 412.919 477.663 412.792 489.02 413.915C491.927 413.226 493.897 415.301 495.74 416.979C493.14 418.185 490.376 419.144 487.462 419.092C475.483 419.684 463.452 419.511 451.504 418.567C452.523 417.204 452.358 413.743 454.8 413.706Z" fill="#070606"/>
<path d="M496.984 415.142C501.809 413.269 507.075 413.374 512.184 413.232C522.185 413.202 532.193 412.985 542.202 413.374C544.082 413.442 545.595 414.7 547.123 415.659C546.629 416.663 546.149 417.674 545.67 418.693C529.826 419.637 513.915 419.637 498.071 418.693C497.704 417.502 497.336 416.318 496.984 415.142Z" fill="#070606"/>
<path d="M183.953 439.571C187.407 430.206 195.715 424.191 202.142 416.984C206.592 421.981 211.596 426.461 215.889 431.6C217.746 433.832 217.379 437.615 219.896 439.188C227.553 439.99 232.175 447.062 237.359 452.006C234.564 453.564 231.8 455.16 229.058 456.8C228.968 479.514 229.051 502.235 229.013 524.956C223.605 524.896 218.196 524.828 212.795 524.709C212.593 517.779 212.84 510.842 212.428 503.935C211.664 498.542 207.663 492.893 202.052 492.017C197.071 492.788 193.28 497.583 192.216 502.34C191.197 509.808 191.58 517.39 191.527 524.911C186.044 524.903 180.567 524.903 175.091 524.911C175.054 502.19 175.121 479.476 175.061 456.763C172.32 455.13 169.578 453.519 166.836 451.916C172.087 447.474 176.215 439.518 183.953 439.571ZM197.46 458.156C194.996 459.894 191.977 460.628 189.205 461.745C191.947 463.071 195.19 463.662 197.513 465.7C199.625 469.828 200.509 474.48 202.187 478.81C203.648 474.315 204.869 469.745 206.06 465.176C208.824 464.112 211.604 463.078 214.308 461.849C211.604 460.554 208.884 459.295 206.18 458.036C205.049 453.894 203.498 449.871 201.977 445.878C200.412 449.931 199.648 454.388 197.46 458.156Z" fill="#070606"/>
<path d="M350.16 426.407C374.102 425.89 398.104 425.568 422.046 426.497C420.878 430.415 418.353 433.868 418.031 438.048C417.551 445.045 418.016 452.177 419.731 458.994C414.937 458.986 410.15 458.979 405.363 458.971C406.622 451.81 406.906 444.483 406.547 437.232C406.3 434.76 404.696 432.692 403.745 430.482C400.606 430.482 397.482 430.482 394.359 430.482C389.976 439.329 390.808 449.967 393.018 459.398C388.321 459.458 383.639 459.084 378.964 458.934C379.556 450.783 380.043 442.581 379.331 434.438C377.503 428.819 368.124 428.527 365.929 434.033C364.716 442.408 365.18 450.993 366.446 459.353C361.674 459.174 356.91 459.039 352.153 458.926C353.269 452.259 354.033 445.525 353.943 438.76C354.43 434.198 351.509 430.505 350.16 426.407Z" fill="#070606"/>
<path d="M450.727 433.325C462.593 431.153 474.744 432.074 486.745 431.909C488.895 432.276 492.408 431.28 493.921 433.617C493.861 434.883 493.569 436.119 493.337 437.37C480.624 437.123 467.911 437.565 455.206 437.228C452.802 437.468 451.94 434.846 450.727 433.325Z" fill="#070606"/>
<path d="M497.148 434.223C502.699 430.95 509.546 432.44 515.674 432.141C515.749 433.279 515.832 434.426 515.922 435.579C515.345 436.149 514.783 436.725 514.228 437.31C508.52 436.905 501.493 439.115 497.148 434.223Z" fill="#070606"/>
<path d="M522.005 431.976C529.938 431.946 537.879 431.946 545.827 431.976C545.977 433.751 545.977 435.534 545.827 437.309C537.879 437.332 529.938 437.332 522.005 437.309C521.847 435.534 521.847 433.751 522.005 431.976Z" fill="#070606"/>
<path d="M451.195 451.66C458.02 449.353 465.399 450.064 472.485 449.915C487.64 450.289 502.832 449.428 517.972 450.274C520.137 451.226 519.059 453.608 518.819 455.353C496.892 455.121 474.965 455.316 453.038 455.218C452.416 454.027 451.802 452.836 451.195 451.66Z" fill="#070606"/>
<path d="M349.246 462.142C373.705 462.014 398.179 461.572 422.631 462.404C423.754 465.003 425.987 466.726 428.167 468.359C428.122 469.393 428.084 470.427 428.047 471.468C399.663 471.903 371.263 471.843 342.879 471.521C344.617 468.135 347.201 465.325 349.246 462.142Z" fill="#070606"/>
<path d="M141 498.445C150.417 489.747 160.305 481.537 170.418 473.656C170.68 490.669 170.725 507.689 170.411 524.702C162.26 524.934 154.095 524.926 145.952 524.567C147.66 522.409 149.937 520.859 152.394 519.675C152.559 512.791 152.626 505.906 152.469 499.029C148.641 498.804 144.821 498.677 141 498.445Z" fill="#070606"/>
<path d="M233.659 473.602C243.848 481.355 253.107 490.24 262.928 498.443C259.175 498.577 255.444 498.705 251.706 498.907C251.578 505.724 251.796 512.556 251.698 519.388C254.096 520.789 256.455 522.317 258.336 524.4C250.073 524.894 241.795 524.954 233.525 524.939C233.562 507.829 233.36 490.712 233.659 473.602Z" fill="#070606"/>
<path d="M382.315 490.532C390.863 489.986 397.792 500.368 393.08 507.672C389.791 515.351 377.528 515.875 373.131 508.916C368.067 501.882 373.498 490.622 382.315 490.532Z" fill="#070606"/>
<path d="M649.656 531.379C656.878 519.693 662.571 507.152 669.508 495.309C670.714 497.496 671.913 499.713 673.127 501.923C667.268 513.415 660.713 524.547 655.462 536.338C654.136 539.657 650.473 540.908 647.656 542.691C648.158 538.923 647.379 534.683 649.656 531.379Z" fill="#070606"/>
<path d="M351.459 501.274C357.954 498.989 364.486 506.159 361.984 512.489C360.321 519.058 349.774 520.399 346.635 514.429C343.234 509.889 346.163 502.713 351.459 501.274Z" fill="#070606"/>
<path d="M409.094 501.177C415.589 498.975 422.915 506.489 419.859 512.751C417.686 518.924 409.071 520.018 404.854 515.388C401.355 510.669 403.595 503.17 409.094 501.177Z" fill="#070606"/>
<path d="M452.455 504.802C463.632 504.683 474.801 504.555 485.986 504.563C488.413 504.952 492.136 503.821 493.941 506.263C493.859 507.537 493.574 508.788 493.327 510.039C479.221 509.874 465.122 510.069 451.024 509.679C450.927 508.563 450.844 507.454 450.762 506.346C451.324 505.829 451.885 505.312 452.455 504.802Z" fill="#070606"/>
<path d="M499.634 505.271C514.047 504.455 528.505 504.387 542.934 504.762C545.308 504.709 546.072 507.331 546.694 509.204C533.465 510.26 520.168 510.08 506.916 509.961C503.942 510.238 501.102 509.489 498.48 508.215C498.863 507.226 499.245 506.245 499.634 505.271Z" fill="#070606"/>
<path d="M366.785 525.592C370.014 519.374 376.996 515.366 384.09 516.58C390.817 515.921 396.608 521.337 399.132 527.12C402.578 534.506 400.908 542.739 399.784 550.478C389.589 553.152 378.494 554.808 368.321 551.159C366.725 550.605 365.317 549.406 365.002 547.691C363.317 540.439 362.927 532.251 366.785 525.592Z" fill="#070606"/>
<path d="M342.554 526.102C346.764 519.255 357.326 518.446 363.102 523.795C359.529 530.62 359.109 538.583 359.993 546.119C353.88 546.022 346.741 548.014 341.273 544.538C338.598 538.8 339.797 531.631 342.554 526.102Z" fill="#070606"/>
<path d="M402.285 523.817C407.132 519.869 414.848 518.566 419.897 522.821C426.557 528.2 425.928 537.811 424.122 545.407C417.822 546.134 411.454 546.8 405.117 546.254C405.844 538.65 405.604 530.852 402.285 523.817Z" fill="#070606"/>
<path d="M452 522.651C464.84 523.205 477.957 521.295 490.67 523.655C490.498 524.988 490.34 526.329 490.168 527.678C476.901 528 463.611 528.239 450.359 527.415C450.884 525.812 451.431 524.232 452 522.651Z" fill="#070606"/>
<path d="M500.31 523.248C515.532 522.656 530.941 521.637 546.096 523.615C545.931 524.956 545.774 526.319 545.609 527.675C534.215 527.922 522.821 528.057 511.434 527.975C507.344 527.855 503.209 527.997 499.238 526.896C499.583 525.675 499.95 524.461 500.31 523.248Z" fill="#070606"/>
<path d="M449.953 541.94C465.797 539.348 481.978 541.116 497.965 540.562C502.834 540.966 508.617 539.513 512.67 543.004C512.175 544.015 511.689 545.027 511.209 546.053C492.069 547.049 472.884 546.727 453.729 546.555C451.317 546.652 450.987 543.513 449.953 541.94Z" fill="#070606"/>
<path d="M375.429 573.269C386.636 570.946 397.394 575.891 406.54 581.861C414.608 587.075 420.789 595.39 422.444 604.972C423.695 613.744 423.665 623.041 420.13 631.326C413.312 648.691 394.352 662.235 375.204 657.381C367.279 654.789 359.39 651.298 352.881 646.009C340.1 633.521 337.913 612.515 346.004 596.889C351.577 585.225 362.424 575.374 375.429 573.269ZM378.418 577.741C364.38 579.404 352.738 590.581 348.213 603.646C343.292 617.257 346.318 634.555 358.117 643.761C367.623 651.83 382.366 650.803 392.337 644.054C409.05 633.483 415.395 609.669 405.934 592.252C400.84 582.461 389.49 576.041 378.418 577.741ZM398.817 645.484C400.203 646.353 401.656 647.088 403.169 647.732C401.798 646.825 400.33 646.099 398.817 645.484Z" fill="#070606"/>
<path d="M376.89 582.933C387.933 580.072 399.559 587.458 403.365 597.796C410.279 614.644 401.245 635.889 384.599 643.006C374.913 647.111 362.822 644.167 356.702 635.499C342.401 617.7 354.499 586.806 376.89 582.933ZM373.827 602.313C370.418 607.43 364.792 610.366 359.413 612.981C362.485 614.621 365.661 616.224 368.066 618.831C372.216 624.517 373.22 631.634 375.235 638.204C377.685 632.001 380.329 625.761 384.614 620.577C387.64 617.146 391.895 615.363 395.971 613.55C392.764 611.857 389.678 609.849 386.974 607.445C383.333 602.014 382.277 595.376 380.718 589.166C378.464 593.563 376.538 598.156 373.827 602.313Z" fill="#070606"/>
<path d="M451.714 593.939C469.333 594.036 487.005 593.167 504.602 594.336C504.939 595.564 505.284 596.793 505.636 598.044C487.432 600.186 469.049 598.658 450.778 599.048C450.493 597.879 450.223 596.71 449.961 595.549C450.545 595.002 451.122 594.471 451.714 593.939Z" fill="#070606"/>
<path d="M514.934 593.786C525.279 594.198 535.887 592.663 546.105 594.82C545.932 596.154 545.775 597.509 545.603 598.858C534.83 599.158 524.043 599.315 513.293 598.588C513.81 596.97 514.364 595.382 514.934 593.786Z" fill="#070606"/>
<path d="M378.884 602.48C380.674 606.503 382.562 610.631 386.061 613.47C381.701 616.369 378.427 620.437 376.157 625.134C375.086 620.467 372.591 616.377 369.438 612.826C373.011 609.777 376.127 606.271 378.884 602.48Z" fill="#070606"/>
<path d="M449.959 612.864C459.39 611.598 469.331 610.669 478.635 613.261C477.384 615.022 476.126 617.299 473.699 617.464C465.825 618.041 457.705 618.528 449.959 616.677C449.951 615.404 449.951 614.13 449.959 612.864Z" fill="#070606"/>
<path d="M483.474 611.766C503.857 611.833 524.241 611.818 544.625 611.773C545.217 613.369 545.771 614.972 546.333 616.597C532.826 618.792 519.057 617.489 505.445 617.871C497.572 617.534 489.467 618.673 481.766 616.612C482.32 614.987 482.897 613.376 483.474 611.766Z" fill="#070606"/>
<path d="M449.195 631.086C465.039 628.472 481.228 630.3 497.207 629.693C502.323 630.12 508.429 628.405 512.661 632.158C512.167 633.161 511.687 634.18 511.208 635.199C492.06 636.233 472.868 635.783 453.705 635.776C450.873 636.24 450.222 632.967 449.195 631.086Z" fill="#070606"/>
<path d="M561.668 653.811C581.467 651.968 600.855 646.979 619.216 639.391C621.515 651.489 622.924 664.307 618.459 676.12C616.316 681.034 614.084 686.338 609.732 689.724C606.263 690.638 602.637 690.818 599.072 691.05C545.681 693.83 492.464 699.733 439.755 708.647C409.655 713.599 379.683 719.285 349.695 724.881C360.483 711.786 360.85 693.605 357.936 677.656C372.634 678.547 387.361 678.735 402.082 678.398C417.296 677.798 432.361 675.483 447.419 673.341C451.269 677.057 455.322 680.563 459.577 683.814C460.409 680.053 461.27 676.337 462.132 672.592C492.808 670.727 523.725 664.359 550.948 649.646C553.038 654.133 555.016 658.688 557.33 663.078C558.821 660.014 560.222 656.898 561.668 653.811Z" fill="#070606"/>
</svg>
